<svg xmlns="http://www.w3.org/2000/svg" viewBox="0 0 136.51 135.47"><defs><style>.cls-1{fill:#83ae28;}.cls-2{fill:#08549b;}</style></defs><title>资源 1bottom</title><g id="图层_2" data-name="图层 2"><g id="图层_1-2" data-name="图层 1"><path class="cls-1" d="M96.69,46.94a78.26,78.26,0,0,0-90.9-.1,50.69,50.69,0,0,1,90.9.1Z"/><path class="cls-1" d="M109.9,57.55A78.29,78.29,0,0,0,34.59,6.64,50.69,50.69,0,0,1,109.9,57.55Z"/><path class="cls-1" d="M109.25,91.84A78.23,78.23,0,0,0,95.13,2a50.68,50.68,0,0,1,14.12,89.8Z"/><path class="cls-2" d="M134.59,52.06A44.15,44.15,0,0,1,49.67,74.94a28.1,28.1,0,0,0-3.91-11.78,27.05,27.05,0,0,0-2-2.9,28.45,28.45,0,0,0-39.94-4.9,28.13,28.13,0,0,0-3.26,3C.43,59.51.3,60.69.21,61.87a67.74,67.74,0,0,0,2.13,23,68.65,68.65,0,0,0,5.1,13.31,66.15,66.15,0,0,0,3.5,6.08A68.24,68.24,0,0,0,134.78,52Z"/></g></g></svg>